<svg xmlns="http://www.w3.org/2000/svg" viewBox="0 0 800 60" width="100%" height="100%">
  <rect width="800" height="60" rx="4" fill="#0d1117"/>
  <path d="M 0,15 L 800,15 M 0,30 L 800,30 M 0,45 L 800,45 M 100,0 L 100,60 M 200,0 L 200,60 M 300,0 L 300,60 M 400,0 L 400,60 M 500,0 L 500,60 M 600,0 L 600,60 M 700,0 L 700,60" stroke="#161b22" stroke-width="1"/>
  <g transform="translate(25, 12)" stroke="#58a6ff" stroke-width="2" fill="none">
    <rect width="46" height="36" rx="3" stroke="#8b949e" />
    <rect x="5" y="5" width="24" height="26" rx="1" fill="#161b22" stroke="#30363d"/>
    <circle cx="38" cy="10" r="1.5"/>
    <circle cx="38" cy="18" r="1.5"/>
    <circle cx="38" cy="26" r="1.5"/>
    <path d="M 7,18 Q 14,5 21,18 T 29,18" stroke="#58a6ff" stroke-width="1.5"/>
  </g>
  <text x="95" y="31" font-family="Segoe UI, Helvetica, sans-serif" font-size="18" font-weight="bold" fill="#c9d1d9">LABORATORY EQUIPMENT</text>
  <text x="95" y="47" font-family="Segoe UI, Helvetica, sans-serif" font-size="12" fill="#8b949e">Instruments, Test Tools &amp; Bench Hardware</text>
</svg>
