<svg xmlns="http://www.w3.org/2000/svg" viewBox="0 0 800 60" width="100%" height="100%">
  <rect width="800" height="60" rx="4" fill="#0d1117"/>
  <path d="M 0,15 L 800,15 M 0,30 L 800,30 M 0,45 L 800,45 M 100,0 L 100,60 M 200,0 L 200,60 M 300,0 L 300,60 M 400,0 L 400,60 M 500,0 L 500,60 M 600,0 L 600,60 M 700,0 L 700,60" stroke="#161b22" stroke-width="1"/>
  <g transform="translate(25, 12)" stroke="#d29922" stroke-width="2" fill="none">
    <rect x="5" y="6" width="38" height="24" rx="3" stroke="#8b949e"/>
    <path d="M 15,13 L 33,13 M 15,19 L 27,19" stroke="#30363d" stroke-width="1.5"/>
    <circle cx="36" cy="13" r="2" fill="#d29922" stroke="none"/>
    <circle cx="36" cy="21" r="2" fill="#3fb950" stroke="none"/>
    <path d="M 5,15 L 2,15 L 2,21 L 5,21" stroke="#8b949e" stroke-width="1.5"/>
  </g>
  <text x="95" y="31" font-family="Segoe UI, Helvetica, sans-serif" font-size="18" font-weight="bold" fill="#c9d1d9">STANDALONE &amp; HOSTED PROJECTS</text>
  <text x="95" y="47" font-family="Segoe UI, Helvetica, sans-serif" font-size="12" fill="#8b949e">Completed Hardware Deployments &amp; Enclosed Systems</text>
</svg>
