<svg xmlns="http://www.w3.org/2000/svg" viewBox="0 0 800 60" width="100%" height="100%">
  <rect width="800" height="60" rx="4" fill="#0d1117"/>
  <path d="M 0,15 L 800,15 M 0,30 L 800,30 M 0,45 L 800,45 M 100,0 L 100,60 M 200,0 L 200,60 M 300,0 L 300,60 M 400,0 L 400,60 M 500,0 L 500,60 M 600,0 L 600,60 M 700,0 L 700,60" stroke="#161b22" stroke-width="1"/>
  <g transform="translate(25, 12)" stroke="#3fb950" stroke-width="2" fill="none">
    <path d="M 5,30 L 45,30 M 10,33 L 10,3" stroke="#30363d" stroke-dasharray="2,2"/>
    <path d="M 10,30 L 24,8 L 24,30 L 38,8 L 38,30 L 45,18" stroke="#3fb950" stroke-width="2"/>
    <circle cx="24" cy="8" r="1.5" fill="#3fb950"/>
    <circle cx="38" cy="8" r="1.5" fill="#3fb950"/>
  </g>
  <text x="95" y="31" font-family="Segoe UI, Helvetica, sans-serif" font-size="18" font-weight="bold" fill="#c9d1d9">DOCUMENTED EXPERIENCES</text>
  <text x="95" y="47" font-family="Segoe UI, Helvetica, sans-serif" font-size="12" fill="#8b949e">Circuit Theory, Measurements &amp; Notebooks</text>
</svg>
