<svg xmlns="http://www.w3.org/2000/svg" viewBox="0 0 800 120" width="100%" height="100%">
  <rect width="800" height="120" rx="6" fill="#0d1117"/>
  <path d="M 0,20 L 800,20 M 0,40 L 800,40 M 0,60 L 800,60 M 0,80 L 800,80 M 0,100 L 800,100 M 100,0 L 100,120 M 200,0 L 200,120 M 300,0 L 300,120 M 400,0 L 400,120 M 500,0 L 500,120 M 600,0 L 600,120 M 700,0 L 700,120" stroke="#161b22" stroke-width="1"/>
  <g transform="translate(40, 25)" stroke="#58a6ff" stroke-width="2" fill="none">
    <rect width="80" height="60" rx="4" stroke="#8b949e" />
    <rect x="8" y="8" width="44" height="44" rx="2" fill="#161b22" stroke="#30363d"/>
    <circle cx="64" cy="16" r="3"/>
    <circle cx="64" cy="30" r="3"/>
    <circle cx="64" cy="44" r="3"/>
    <path d="M 12,30 Q 23,8 34,30 T 52,30" stroke="#58a6ff" stroke-width="2"/>
  </g>
  <text x="150" y="68" font-family="Segoe UI, Helvetica, sans-serif" font-size="24" font-weight="bold" fill="#c9d1d9">LABORATORY EQUIPMENT</text>
  <text x="150" y="88" font-family="Segoe UI, Helvetica, sans-serif" font-size="14" fill="#8b949e">Instruments, Test Tools &amp; Bench Hardware</text>
</svg>
