<svg xmlns="http://www.w3.org/2000/svg" viewBox="0 0 800 60" width="100%" height="100%">
  <rect width="800" height="60" rx="4" fill="#0d1117"/>
  <path d="M 0,15 L 800,15 M 0,30 L 800,30 M 0,45 L 800,45 M 100,0 L 100,60 M 200,0 L 200,60 M 300,0 L 300,60 M 400,0 L 400,60 M 500,0 L 500,60 M 600,0 L 600,60 M 700,0 L 700,60" stroke="#161b22" stroke-width="1"/>
  <g transform="translate(25, 12)" stroke="#ff7b72" stroke-width="2" fill="none">
    <rect x="10" y="8" width="28" height="20" rx="1.5" fill="#161b22" stroke="#8b949e"/>
    <path d="M 16,8 L 16,3 M 24,8 L 24,3 M 32,8 L 32,3 M 16,28 L 16,33 M 24,28 L 24,33 M 32,28 L 32,33" stroke="#ff7b72" stroke-width="1.5"/>
    <circle cx="13" cy="12" r="1" fill="#ff7b72"/>
  </g>
  <text x="95" y="31" font-family="Segoe UI, Helvetica, sans-serif" font-size="18" font-weight="bold" fill="#c9d1d9">REUSABLE ASSETS &amp; LIBS</text>
  <text x="95" y="47" font-family="Segoe UI, Helvetica, sans-serif" font-size="12" fill="#8b949e">CAD Models, Component Footprints &amp; Base Modules</text>
</svg>
