<svg xmlns="http://www.w3.org/2000/svg" viewBox="0 0 800 120" width="100%" height="100%">
  <rect width="800" height="120" rx="6" fill="#0d1117"/>
  <path d="M 0,20 L 800,20 M 0,40 L 800,40 M 0,60 L 800,60 M 0,80 L 800,80 M 0,100 L 800,100 M 100,0 L 100,120 M 200,0 L 200,120 M 300,0 L 300,120 M 400,0 L 400,120 M 500,0 L 500,120 M 600,0 L 600,120 M 700,0 L 700,120" stroke="#161b22" stroke-width="1"/>
  <g transform="translate(40, 25)" stroke="#ff7b72" stroke-width="2" fill="none">
    <rect x="20" y="15" width="40" height="30" rx="2" fill="#161b22" stroke="#8b949e"/>
    <path d="M 28,15 L 28,8 M 40,15 L 40,8 M 52,15 L 52,8 M 28,45 L 28,52 M 40,45 L 40,52 M 52,45 L 52,52" stroke="#ff7b72"/>
    <circle cx="24" cy="21" r="1.5" fill="#ff7b72"/>
  </g>
  <text x="150" y="68" font-family="Segoe UI, Helvetica, sans-serif" font-size="24" font-weight="bold" fill="#c9d1d9">REUSABLE ASSETS &amp; LIBS</text>
  <text x="150" y="88" font-family="Segoe UI, Helvetica, sans-serif" font-size="14" fill="#8b949e">CAD Models, Component Footprints &amp; Base Modules</text>
</svg>
