<svg xmlns="http://www.w3.org/2000/svg" viewBox="0 0 800 120" width="100%" height="100%">
  <rect width="800" height="120" rx="6" fill="#0d1117"/>
  <path d="M 0,20 L 800,20 M 0,40 L 800,40 M 0,60 L 800,60 M 0,80 L 800,80 M 0,100 L 800,100 M 100,0 L 100,120 M 200,0 L 200,120 M 300,0 L 300,120 M 400,0 L 400,120 M 500,0 L 500,120 M 600,0 L 600,120 M 700,0 L 700,120" stroke="#161b22" stroke-width="1"/>
  <g transform="translate(40, 25)" stroke="#3fb950" stroke-width="2" fill="none">
    <path d="M 10,50 L 70,50 M 15,55 L 15,5" stroke="#30363d" stroke-dasharray="2,2"/>
    <path d="M 15,50 L 35,15 L 35,50 L 55,15 L 55,50 L 75,15" stroke="#3fb950" stroke-width="2"/>
    <circle cx="35" cy="15" r="2" fill="#3fb950"/>
    <circle cx="55" cy="15" r="2" fill="#3fb950"/>
  </g>
  <text x="150" y="68" font-family="Segoe UI, Helvetica, sans-serif" font-size="24" font-weight="bold" fill="#c9d1d9">DOCUMENTED EXPERIENCES</text>
  <text x="150" y="88" font-family="Segoe UI, Helvetica, sans-serif" font-size="14" fill="#8b949e">Circuit Theory, Measurements &amp; Notebooks</text>
</svg>
